<svg width="180" height="180" viewBox="-1 -1 35 35" xmlns="http://www.w3.org/2000/svg" xmlns:xlink="http://www.w3.org/1999/xlink" shape-rendering="crispEdges" id="qr code"><rect id="qr background" fill-opacity="1" fill="rgb(255, 255, 255)" x="-1" y="-1" width="35" height="35"></rect><path fill-opacity="1" fill="rgb(0, 0, 0)" id="qr dark pixels" fill-rule="evenodd" d="M 9 0 L 10 0 L 10 2 L 11 2 L 11 1 L 13 1 L 13 2 L 12 2 L 12 4 L 11 4 L 11 3 L 10 3 L 10 4 L 8 4 L 8 3 L 9 3 L 9 2 L 8 2 L 8 1 L 9 1 z M 14 0 L 15 0 L 15 1 L 14 1 z M 18 0 L 21 0 L 21 1 L 23 1 L 23 2 L 24 2 L 24 3 L 23 3 L 23 4 L 22 4 L 22 3 L 21 3 L 21 2 L 20 2 L 20 1 L 18 1 z M 23 0 L 25 0 L 25 2 L 24 2 L 24 1 L 23 1 z M 15 1 L 16 1 L 16 2 L 15 2 z M 17 1 L 18 1 L 18 2 L 17 2 z M 13 3 L 18 3 L 18 4 L 14 4 L 14 5 L 12 5 L 12 4 L 13 4 z M 24 3 L 25 3 L 25 4 L 24 4 z M 10 4 L 11 4 L 11 7 L 10 7 z M 18 4 L 22 4 L 22 5 L 21 5 L 21 7 L 22 7 L 22 6 L 23 6 L 23 7 L 24 7 L 24 8 L 26 8 L 26 9 L 25 9 L 25 10 L 23 10 L 23 9 L 22 9 L 22 8 L 20 8 L 20 5 L 18 5 z M 23 4 L 24 4 L 24 5 L 23 5 z M 8 5 L 9 5 L 9 7 L 8 7 z M 14 5 L 17 5 L 17 8 L 16 8 L 16 9 L 12 9 L 12 6 L 13 6 L 13 8 L 14 8 zM 15 6 L 16 6 L 16 7 L 15 7 z M 18 6 L 19 6 L 19 7 L 18 7 z M 24 6 L 25 6 L 25 7 L 24 7 z M 0 8 L 5 8 L 5 11 L 3 11 L 3 13 L 1 13 L 1 12 L 2 12 L 2 10 L 4 10 L 4 9 L 1 9 L 1 10 L 0 10 z M 6 8 L 11 8 L 11 9 L 10 9 L 10 11 L 11 11 L 11 10 L 13 10 L 13 11 L 12 11 L 12 13 L 11 13 L 11 12 L 10 12 L 10 13 L 11 13 L 11 14 L 9 14 L 9 12 L 8 12 L 8 11 L 6 11 L 6 10 L 7 10 L 7 9 L 6 9 z M 17 8 L 18 8 L 18 9 L 17 9 z M 19 8 L 20 8 L 20 9 L 21 9 L 21 11 L 20 11 L 20 10 L 19 10 z M 27 8 L 28 8 L 28 10 L 27 10 L 27 12 L 26 12 L 26 11 L 25 11 L 25 10 L 26 10 L 26 9 L 27 9 z M 29 8 L 30 8 L 30 9 L 29 9 z M 31 8 L 32 8 L 32 9 L 33 9 L 33 10 L 32 10 L 32 11 L 31 11 L 31 10 L 30 10 L 30 9 L 31 9 z M 14 10 L 19 10 L 19 11 L 17 11 L 17 12 L 16 12 L 16 13 L 14 13 L 14 14 L 16 14 L 16 13 L 17 13 L 17 12 L 20 12 L 20 13 L 22 13 L 22 14 L 21 14 L 21 15 L 22 15 L 22 16 L 20 16 L 20 18 L 18 18 L 18 17 L 19 17 L 19 15 L 20 15 L 20 14 L 18 14 L 18 15 L 17 15 L 17 16 L 16 16 L 16 17 L 15 17 L 15 18 L 16 18 L 16 19 L 15 19 L 15 20 L 14 20 L 14 17 L 12 17 L 12 15 L 13 15 L 13 16 L 15 16 L 15 15 L 13 15 L 13 14 L 12 14 L 12 13 L 13 13 L 13 12 L 14 12 z M 22 10 L 23 10 L 23 11 L 24 11 L 24 12 L 26 12 L 26 13 L 24 13 L 24 14 L 23 14 L 23 13 L 22 13 L 22 12 L 21 12 L 21 11 L 22 11 z M 28 10 L 30 10 L 30 11 L 29 11 L 29 12 L 30 12 L 30 13 L 27 13 L 27 12 L 28 12 z M 0 11 L 1 11 L 1 12 L 0 12 z M 5 11 L 6 11 L 6 12 L 5 12 z M 30 11 L 31 11 L 31 12 L 30 12 z M 6 12 L 8 12 L 8 13 L 6 13 z M 3 13 L 6 13 L 6 14 L 9 14 L 9 15 L 4 15 L 4 14 L 3 14 z M 26 13 L 27 13 L 27 14 L 26 14 z M 31 13 L 33 13 L 33 14 L 32 14 L 32 15 L 31 15 z M 0 14 L 2 14 L 2 15 L 1 15 L 1 16 L 2 16 L 2 18 L 1 18 L 1 17 L 0 17 z M 22 14 L 23 14 L 23 15 L 22 15 z M 25 14 L 26 14 L 26 15 L 27 15 L 27 16 L 26 16 L 26 17 L 24 17 L 24 18 L 23 18 L 23 17 L 22 17 L 22 16 L 24 16 L 24 15 L 25 15 z M 28 14 L 29 14 L 29 15 L 28 15 z M 3 15 L 4 15 L 4 16 L 3 16 z M 10 15 L 11 15 L 11 17 L 10 17 z M 30 15 L 31 15 L 31 16 L 30 16 z M 6 16 L 7 16 L 7 17 L 6 17 z M 17 16 L 18 16 L 18 17 L 17 17 z M 27 16 L 29 16 L 29 17 L 27 17 z M 31 16 L 32 16 L 32 17 L 33 17 L 33 18 L 32 18 L 32 19 L 31 19 z M 16 17 L 17 17 L 17 18 L 16 18 z M 21 17 L 22 17 L 22 18 L 21 18 z M 26 17 L 27 17 L 27 19 L 26 19 z M 29 17 L 30 17 L 30 19 L 29 19 z M 2 18 L 3 18 L 3 20 L 0 20 L 0 19 L 2 19 z M 4 18 L 5 18 L 5 20 L 4 20 z M 6 18 L 8 18 L 8 19 L 9 19 L 9 20 L 8 20 L 8 21 L 6 21 L 6 22 L 7 22 L 7 23 L 5 23 L 5 22 L 4 22 L 4 21 L 5 21 L 5 20 L 7 20 L 7 19 L 6 19 z M 11 18 L 13 18 L 13 19 L 12 19 L 12 21 L 11 21 L 11 24 L 10 24 L 10 22 L 8 22 L 8 21 L 9 21 L 9 20 L 11 20 z M 17 18 L 18 18 L 18 19 L 17 19 z M 20 18 L 21 18 L 21 19 L 22 19 L 22 20 L 21 20 L 21 21 L 22 21 L 22 22 L 23 22 L 23 23 L 24 23 L 24 22 L 23 22 L 23 21 L 22 21 L 22 20 L 23 20 L 23 19 L 24 19 L 24 20 L 25 20 L 25 19 L 26 19 L 26 21 L 27 21 L 27 22 L 26 22 L 26 23 L 25 23 L 25 24 L 27 24 L 27 23 L 28 23 L 28 24 L 29 24 L 29 25 L 31 25 L 31 26 L 32 26 L 32 27 L 31 27 L 31 28 L 29 28 L 29 29 L 30 29 L 30 30 L 28 30 L 28 29 L 26 29 L 26 30 L 25 30 L 25 31 L 24 31 L 24 32 L 25 32 L 25 33 L 22 33 L 22 32 L 20 32 L 20 30 L 19 30 L 19 29 L 21 29 L 21 30 L 23 30 L 23 29 L 24 29 L 24 28 L 20 28 L 20 26 L 19 26 L 19 25 L 17 25 L 17 24 L 19 24 L 19 23 L 21 23 L 21 22 L 18 22 L 18 21 L 17 21 L 17 20 L 18 20 L 18 19 L 19 19 L 19 21 L 20 21 zM 20 24 L 22 24 L 22 25 L 20 25 z M 23 24 L 24 24 L 24 26 L 22 26 L 22 25 L 23 25 z M 25 25 L 28 25 L 28 28 L 25 28 z M 22 18 L 23 18 L 23 19 L 22 19 z M 24 18 L 25 18 L 25 19 L 24 19 z M 16 19 L 17 19 L 17 20 L 16 20 z M 27 19 L 28 19 L 28 20 L 29 20 L 29 21 L 27 21 z M 30 19 L 31 19 L 31 20 L 30 20 z M 3 20 L 4 20 L 4 21 L 3 21 z M 13 20 L 14 20 L 14 22 L 16 22 L 16 23 L 13 23 L 13 22 L 12 22 L 12 21 L 13 21 z M 15 20 L 16 20 L 16 21 L 15 21 z M 31 20 L 32 20 L 32 21 L 33 21 L 33 22 L 32 22 L 32 23 L 31 23 z M 0 21 L 2 21 L 2 22 L 1 22 L 1 25 L 0 25 z M 16 21 L 17 21 L 17 22 L 16 22 z M 29 21 L 30 21 L 30 23 L 31 23 L 31 24 L 29 24 L 29 23 L 28 23 L 28 22 L 29 22 z M 2 22 L 3 22 L 3 23 L 2 23 z M 3 23 L 5 23 L 5 25 L 3 25 z M 7 23 L 8 23 L 8 24 L 7 24 z M 12 23 L 13 23 L 13 24 L 16 24 L 16 25 L 14 25 L 14 27 L 12 27 L 12 28 L 15 28 L 15 30 L 14 30 L 14 29 L 13 29 L 13 30 L 12 30 L 12 29 L 10 29 L 10 28 L 9 28 L 9 27 L 8 27 L 8 25 L 9 25 L 9 26 L 13 26 L 13 25 L 12 25 z M 16 23 L 17 23 L 17 24 L 16 24 z M 6 24 L 7 24 L 7 25 L 6 25 z M 9 24 L 10 24 L 10 25 L 9 25 z M 32 24 L 33 24 L 33 26 L 32 26 z M 16 25 L 17 25 L 17 26 L 19 26 L 19 29 L 17 29 L 17 28 L 18 28 L 18 27 L 17 27 L 17 28 L 16 28 L 16 27 L 15 27 L 15 26 L 16 26 z M 26 26 L 27 26 L 27 27 L 26 27 z M 8 28 L 9 28 L 9 29 L 10 29 L 10 30 L 11 30 L 11 31 L 12 31 L 12 32 L 10 32 L 10 33 L 8 33 z M 31 28 L 32 28 L 32 29 L 31 29 z M 16 29 L 17 29 L 17 31 L 15 31 L 15 30 L 16 30 z M 18 30 L 19 30 L 19 32 L 18 32 z M 26 30 L 27 30 L 27 32 L 26 32 z M 31 30 L 32 30 L 32 31 L 31 31 z M 29 31 L 31 31 L 31 32 L 29 32 z M 12 32 L 16 32 L 16 33 L 12 33 z M 17 32 L 18 32 L 18 33 L 17 33 z M 19 32 L 20 32 L 20 33 L 19 33 z M 31 32 L 32 32 L 32 33 L 31 33 z"></path><path id="qr squares" d="M0,0h7h0v0v7v0h0h-7h0v0v-7v0h0zM1,1h5h0v0v5v0h0h-5h0v0v-5v0h0zM2,2h3h0v0v3v0h0h-3h0v0v-3v0h0z M26,0h7h0v0v7v0h0h-7h0v0v-7v0h0zM27,1h5h0v0v5v0h0h-5h0v0v-5v0h0zM28,2h3h0v0v3v0h0h-3h0v0v-3v0h0z M0,26h7h0v0v7v0h0h-7h0v0v-7v0h0zM1,27h5h0v0v5v0h0h-5h0v0v-5v0h0zM2,28h3h0v0v3v0h0h-3h0v0v-3v0h0z" fill-rule="evenodd" fill-opacity="1" fill="rgb(0, 0, 0)"></path></svg>